<svg width="71" height="71" viewBox="0 0 71 71" fill="none" xmlns="http://www.w3.org/2000/svg">
<g clip-path="url(#clip0_605_4936)">
<path d="M27.8522 25.387C28.6647 24.5746 28.6647 23.2581 27.8522 22.4457L13.1455 7.73688C12.3655 6.95685 10.9842 6.95685 10.2042 7.73688L4.32031 13.6206L12.467 25.2407L21.9682 31.271L27.8522 25.387Z" fill="#7FE881"/>
<path d="M63.1516 57.7461L48.4448 43.0372C47.6323 42.2247 46.3159 42.2247 45.5034 43.0372L39.6191 48.92L45.7472 62.6822L57.2679 66.5711L63.1516 60.6874C63.9641 59.8749 63.9641 58.5586 63.1516 57.7461Z" fill="#5BC980"/>
<path d="M57.2712 66.5511L57.1463 66.6758C53.2624 70.6181 47.0348 72.3458 41.1298 69.7959C31.3533 65.3861 23.6572 59.6451 17.5416 53.4465C9.7208 45.5839 4.60353 37.0555 1.31714 29.9417C-1.22055 24.4919 -0.0141082 17.9605 4.27099 13.6754L4.31232 13.6338L21.9517 31.2731L20.1625 33.1036C22.3259 36.7643 24.9468 40.0927 27.942 43.0462C30.8959 46.0417 34.1822 48.5794 37.8019 50.7427L39.6323 48.9122L57.2712 66.5511Z" fill="#5BC980"/>
<path d="M57.2716 66.551L57.1467 66.6757C53.2628 70.618 47.0351 72.3457 41.1302 69.7958C31.3537 65.3861 23.6576 59.645 17.542 53.4464L27.9424 43.046C30.8962 46.0415 34.1826 48.5792 37.8022 50.7424L39.6327 48.912L57.2716 66.551Z" fill="#00AB5E"/>
<path d="M71 31.2036C71 32.3683 70.0849 33.2837 68.9199 33.2837C67.7549 33.2837 66.8398 32.3683 66.8398 31.2036C66.8398 23.7568 63.8031 16.9757 58.8941 12.1084C54.0266 7.19951 47.2454 4.1626 39.7988 4.1626C38.6338 4.1626 37.7188 3.24722 37.7188 2.08252C37.7188 0.917537 38.6338 0.00244141 39.7988 0.00244141C48.4104 0.00244141 56.1898 3.49683 61.8477 9.15479C67.5053 14.8126 71 22.5921 71 31.2036Z" fill="#25D9F8"/>
<path d="M62.6797 31.2036C62.6797 32.3683 61.7646 33.2837 60.5996 33.2837C59.4346 33.2837 58.5195 32.3683 58.5195 31.2036C58.5195 26.045 56.4395 21.3856 53.0281 17.9743C49.6168 14.563 44.9574 12.4829 39.7988 12.4829C38.6338 12.4829 37.7188 11.5675 37.7188 10.4028C37.7188 9.23785 38.6338 8.32275 39.7988 8.32275C46.1224 8.32275 51.8217 10.9021 55.9818 15.0206C60.1004 19.1808 62.6797 24.8802 62.6797 31.2036Z" fill="#25D9F8"/>
<path d="M54.3594 31.2036C54.3594 32.3683 53.4443 33.2837 52.2793 33.2837C51.1143 33.2837 50.1992 32.3683 50.1992 31.2036C50.1992 28.3331 49.0342 25.7122 47.1624 23.84C45.2904 21.9679 42.6693 20.8032 39.7988 20.8032C38.6338 20.8032 37.7188 19.8879 37.7188 18.7231C37.7188 17.5582 38.6338 16.6431 39.7988 16.6431C43.7927 16.6431 47.4537 18.2655 50.0743 20.9279C52.7369 23.5488 54.3594 27.2099 54.3594 31.2036Z" fill="#25D9F8"/>
<path d="M46.0391 31.2036C46.0391 32.3683 45.124 33.2837 43.959 33.2837C42.794 33.2837 41.8789 32.3683 41.8789 31.2036C41.8789 30.6212 41.6293 30.122 41.2965 29.706C40.8806 29.373 40.3814 29.1235 39.7988 29.1235C38.6338 29.1235 37.7188 28.2082 37.7188 27.0435C37.7188 25.8785 38.6338 24.9634 39.7988 24.9634C41.546 24.9634 43.0852 25.6706 44.2086 26.7938C45.332 27.917 46.0391 29.4562 46.0391 31.2036Z" fill="#25D9F8"/>
<path d="M44.208 26.7938C45.3314 27.9169 46.0385 29.4562 46.0385 31.2036C46.0385 32.3683 45.1234 33.2837 43.9584 33.2837C42.7934 33.2837 41.8783 32.3683 41.8783 31.2036C41.8783 30.6212 41.6287 30.1219 41.2959 29.7059L44.208 26.7938Z" fill="#00C0F1"/>
<path d="M50.0735 20.9279C52.736 23.5488 54.3586 27.2097 54.3586 31.2036C54.3586 32.3683 53.4435 33.2837 52.2785 33.2837C51.1135 33.2837 50.1984 32.3683 50.1984 31.2036C50.1984 28.3331 49.0334 25.7122 47.1616 23.84L50.0735 20.9279Z" fill="#00C0F1"/>
<path d="M55.9825 15.0205C60.1011 19.1807 62.6804 24.8801 62.6804 31.2035C62.6804 32.3682 61.7653 33.2836 60.6003 33.2836C59.4353 33.2836 58.5202 32.3682 58.5202 31.2035C58.5202 26.0449 56.4401 21.3855 53.0288 17.9742L55.9825 15.0205Z" fill="#00C0F1"/>
<path d="M71 31.2036C71 32.3683 70.0849 33.2837 68.9199 33.2837C67.7549 33.2837 66.8398 32.3683 66.8398 31.2036C66.8398 23.7568 63.803 16.9757 58.894 12.1083L61.8476 9.15491C67.5053 14.8126 71 22.5921 71 31.2036Z" fill="#00C0F1"/>
</g>
<defs>
<clipPath id="clip0_605_4936">
<rect width="71" height="71" fill="white"/>
</clipPath>
</defs>
</svg>
