<svg width="12" height="13" viewBox="0 0 12 13" fill="none" xmlns="http://www.w3.org/2000/svg">
<path d="M3.33182 12.0588C3.2403 12.1204 3.12833 12.1438 3.0198 12.124C2.91127 12.1041 2.81478 12.0427 2.75092 11.9527C2.72001 11.9071 2.69857 11.8558 2.68788 11.8018C2.67718 11.7477 2.67744 11.6921 2.68865 11.6381C2.69985 11.5842 2.72178 11.5331 2.75312 11.4878C2.78446 11.4425 2.82457 11.4039 2.87109 11.3744L5.02355 9.99413L5.63165 10.4255L3.33182 12.0588ZM9.31647 11.6383C9.33325 11.7196 9.32518 11.804 9.29332 11.8806C9.26145 11.9573 9.20727 12.0225 9.13781 12.0679C9.06835 12.1133 8.98683 12.1368 8.90386 12.1352C8.82088 12.1337 8.7403 12.1072 8.6726 12.0592L2.66674 7.79669C2.63012 7.77072 2.58627 7.75691 2.54138 7.75722C2.49649 7.75753 2.45283 7.77193 2.41656 7.7984C2.16282 7.964 1.86447 8.04798 1.56159 8.03906C1.25872 8.03014 0.965831 7.92874 0.722271 7.74849C0.394571 7.53354 0.155918 7.20707 0.0505514 6.82959C0.000132739 6.6647 -0.0127815 6.49062 0.0127538 6.32009C0.038289 6.14956 0.101628 5.9869 0.198135 5.84401C0.294642 5.70112 0.421876 5.58161 0.570526 5.49423C0.719177 5.40685 0.885483 5.35381 1.05727 5.339C1.44669 5.29529 1.83875 5.39422 2.16081 5.61745C2.41899 5.77591 2.6225 6.00957 2.74403 6.28704C2.86555 6.56452 2.89928 6.87253 2.84067 7.16973C2.82966 7.2133 2.83263 7.25922 2.84916 7.30101C2.86569 7.34279 2.89494 7.37832 2.93278 7.40257L9.13462 11.3742C9.18114 11.4037 9.22122 11.4423 9.25246 11.4877C9.28371 11.5331 9.30548 11.5843 9.31647 11.6383ZM11.2828 7.74806C11.0392 7.92827 10.7462 8.0296 10.4433 8.03845C10.1404 8.04729 9.84202 7.96323 9.58828 7.79754C9.55202 7.77108 9.50836 7.75667 9.46347 7.75636C9.41858 7.75606 9.37472 7.76986 9.3381 7.79583L6.96845 9.47813L6.4004 9.11399L9.07229 7.40042C9.11004 7.37621 9.13923 7.34075 9.15576 7.29905C9.17228 7.25736 9.1753 7.21152 9.16439 7.16802C9.10695 6.87077 9.1413 6.56308 9.26289 6.28582C9.38448 6.00856 9.58754 5.77485 9.84511 5.61574C10.5305 5.15372 11.4117 5.25568 11.8078 5.84236C12.2038 6.42904 11.968 7.28604 11.2828 7.74806Z" fill="#287ED1"/>
<path d="M4.03635 6.82686L3.95068 6.39847H8.05468L7.969 6.82686H4.03635ZM3.21812 0.615166C3.42225 0.614643 3.62429 0.65622 3.81162 0.7373C3.99895 0.81838 4.16755 0.937221 4.30688 1.0864C4.33069 1.11157 4.36025 1.1306 4.39303 1.14184C4.4258 1.15308 4.46082 1.1562 4.49506 1.15094C4.52931 1.14567 4.56177 1.13217 4.58966 1.11161C4.61754 1.09104 4.64002 1.06401 4.65517 1.03285C4.77753 0.779439 4.96887 0.565669 5.20722 0.416077C5.44557 0.266484 5.72127 0.187134 6.00268 0.187134C6.28408 0.187134 6.55978 0.266484 6.79813 0.416077C7.03648 0.565669 7.22782 0.779439 7.35018 1.03285C7.36533 1.06401 7.38781 1.09104 7.41569 1.11161C7.44358 1.13217 7.47604 1.14567 7.51029 1.15094C7.54453 1.1562 7.57955 1.15308 7.61232 1.14184C7.6451 1.1306 7.67466 1.11157 7.69847 1.0864C7.8378 0.937221 8.0064 0.81838 8.19373 0.7373C8.38106 0.65622 8.5831 0.614643 8.78723 0.615166C9.18489 0.615166 9.56626 0.773136 9.84745 1.05432C10.1286 1.33551 10.2866 1.71688 10.2866 2.11454C10.2866 2.5122 10.1286 2.89357 9.84745 3.17476C9.56626 3.45595 9.18489 3.61391 8.78723 3.61391C8.73785 3.6139 8.68998 3.63096 8.65173 3.66218C8.61348 3.69341 8.58719 3.73689 8.57732 3.78527L8.14035 5.97007H7.32063L7.49991 4.71531L7.0758 4.65448L6.88795 5.97007H6.21687V3.61391H5.78848V5.97007H5.1174L4.92955 4.65448L4.50544 4.71531L4.68473 5.97007H3.865L3.42804 3.78527C3.41816 3.73689 3.39187 3.69341 3.35362 3.66218C3.31537 3.63096 3.2675 3.6139 3.21812 3.61391C2.82047 3.61391 2.43909 3.45595 2.15791 3.17476C1.87672 2.89357 1.71875 2.5122 1.71875 2.11454C1.71875 1.71688 1.87672 1.33551 2.15791 1.05432C2.43909 0.773136 2.82047 0.615166 3.21812 0.615166Z" fill="#287ED1"/>
</svg>
