<svg width="13" height="11" viewBox="0 0 13 11" fill="none" xmlns="http://www.w3.org/2000/svg">
<g clip-path="url(#clip0_605_5871)">
<path d="M0.769469 1.93912H6.41854C6.5888 2.6571 7.28087 3.19612 8.10623 3.19612C8.93159 3.19612 9.62365 2.65712 9.79391 1.93912H11.9004C12.1053 1.93912 12.2715 1.7852 12.2715 1.59537C12.2715 1.40553 12.1053 1.25162 11.9004 1.25162H9.79373C9.62315 0.533994 8.93013 -0.00537109 8.10623 -0.00537109C7.28189 -0.00537109 6.58919 0.533908 6.41868 1.25162H0.769469C0.564567 1.25162 0.398438 1.40553 0.398438 1.59537C0.398438 1.7852 0.564567 1.93912 0.769469 1.93912ZM7.12054 1.59627C7.12054 1.59504 7.12056 1.5938 7.12056 1.59257C7.12218 1.09055 7.56434 0.68215 8.10623 0.68215C8.64735 0.68215 9.08953 1.08999 9.09187 1.59178L9.09194 1.59683C9.09109 2.09971 8.64923 2.50864 8.10623 2.50864C7.56345 2.50864 7.12174 2.10012 7.12051 1.59754L7.12054 1.59627ZM11.9004 9.06078H9.79373C9.62312 8.34318 8.93013 7.80379 8.10623 7.80379C7.28189 7.80379 6.58919 8.34309 6.41868 9.06078H0.769469C0.564567 9.06078 0.398438 9.21467 0.398438 9.40453C0.398438 9.59438 0.564567 9.74828 0.769469 9.74828H6.41854C6.5888 10.4663 7.28087 11.0053 8.10623 11.0053C8.93159 11.0053 9.62365 10.4663 9.79391 9.74828H11.9004C12.1053 9.74828 12.2715 9.59438 12.2715 9.40453C12.2715 9.21467 12.1053 9.06078 11.9004 9.06078ZM8.10623 10.3178C7.56345 10.3178 7.12174 9.90926 7.12051 9.40668L7.12054 9.40543C7.12054 9.40418 7.12056 9.40296 7.12056 9.40173C7.12218 8.89971 7.56434 8.49129 8.10623 8.49129C8.64735 8.49129 9.08953 8.89913 9.09187 9.4009L9.09194 9.40594C9.09116 9.90889 8.64928 10.3178 8.10623 10.3178ZM11.9004 5.15621H6.25135C6.08109 4.43822 5.38902 3.89922 4.56366 3.89922C3.7383 3.89922 3.04624 4.43822 2.87598 5.15621H0.769469C0.564567 5.15621 0.398438 5.31012 0.398438 5.49996C0.398438 5.68981 0.564567 5.84371 0.769469 5.84371H2.87616C3.04677 6.56131 3.73976 7.10069 4.56366 7.10069C5.388 7.10069 6.0807 6.56139 6.25121 5.84371H11.9004C12.1053 5.84371 12.2715 5.68981 12.2715 5.49996C12.2715 5.31012 12.1053 5.15621 11.9004 5.15621ZM5.54936 5.49905C5.54936 5.5003 5.54933 5.50153 5.54933 5.50275C5.54771 6.00478 5.10556 6.41317 4.56366 6.41317C4.02254 6.41317 3.58036 6.00533 3.57802 5.50357L3.57795 5.49854C3.57876 4.99559 4.02063 4.58672 4.56366 4.58672C5.10644 4.58672 5.54815 4.99522 5.54938 5.49783L5.54936 5.49905Z" fill="#21619E"/>
</g>
<defs>
<clipPath id="clip0_605_5871">
<rect width="11.873" height="11" fill="white" transform="translate(0.398438)"/>
</clipPath>
</defs>
</svg>
