<svg width="16" height="15" viewBox="0 0 16 15" fill="none" xmlns="http://www.w3.org/2000/svg">
<path d="M4.43041 14.9039C4.316 14.9813 4.17604 15.0106 4.04037 14.9858C3.90471 14.9609 3.7841 14.8837 3.70428 14.7708C3.66564 14.7136 3.63884 14.6491 3.62547 14.5813C3.6121 14.5134 3.61243 14.4436 3.62644 14.3759C3.64044 14.3082 3.66785 14.244 3.70702 14.1871C3.74619 14.1302 3.79634 14.0818 3.85449 14.0448L6.54506 12.3119L7.30519 12.8535L4.43041 14.9039ZM11.9112 14.3761C11.9322 14.4781 11.9221 14.5841 11.8823 14.6803C11.8424 14.7765 11.7747 14.8584 11.6879 14.9154C11.6011 14.9724 11.4992 15.0019 11.3954 14.9999C11.2917 14.9979 11.191 14.9647 11.1064 14.9045L3.59906 9.5532C3.55328 9.5206 3.49846 9.50327 3.44235 9.50366C3.38623 9.50404 3.33166 9.52213 3.28633 9.55535C2.96915 9.76326 2.59621 9.86869 2.21762 9.85749C1.83902 9.84629 1.47291 9.71899 1.16846 9.4927C0.758839 9.22284 0.460523 8.81298 0.328814 8.33909C0.265791 8.13208 0.249648 7.91353 0.281567 7.69945C0.313486 7.48536 0.39266 7.28115 0.513294 7.10176C0.633928 6.92237 0.79297 6.77234 0.978783 6.66264C1.1646 6.55295 1.37248 6.48636 1.58722 6.46776C2.07399 6.41289 2.56407 6.53709 2.96664 6.81734C3.28936 7.01627 3.54375 7.30961 3.69566 7.65796C3.84757 8.00631 3.88972 8.393 3.81647 8.76611C3.8027 8.8208 3.80641 8.87846 3.82708 8.93092C3.84774 8.98337 3.8843 9.02798 3.9316 9.05841L11.6839 14.0445C11.742 14.0816 11.7921 14.13 11.8312 14.187C11.8703 14.244 11.8975 14.3083 11.9112 14.3761ZM14.3691 9.49216C14.0646 9.71839 13.6984 9.84561 13.3197 9.85671C12.9411 9.86782 12.5682 9.76228 12.251 9.55428C12.2057 9.52105 12.1511 9.50297 12.095 9.50258C12.0388 9.50219 11.984 9.51953 11.9383 9.55213L8.97619 11.6641L8.26613 11.207L11.606 9.05572C11.6532 9.02532 11.6897 8.98081 11.7103 8.92846C11.731 8.87611 11.7348 8.81858 11.7211 8.76396C11.6493 8.39079 11.6923 8.0045 11.8442 7.65642C11.9962 7.30834 12.25 7.01494 12.572 6.81519C13.4288 6.23516 14.5303 6.36316 15.0254 7.09969C15.5204 7.83623 15.2256 8.91213 14.3691 9.49216Z" fill="#287ED1"/>
<path d="M5.31107 8.33567L5.20397 7.79785H10.334L10.2269 8.33567H5.31107ZM4.28828 0.537362C4.54344 0.536705 4.79599 0.588902 5.03015 0.690692C5.26432 0.792482 5.47506 0.941677 5.64923 1.12896C5.67899 1.16056 5.71594 1.18445 5.75691 1.19856C5.79788 1.21267 5.84165 1.21659 5.88446 1.20998C5.92727 1.20337 5.96784 1.18643 6.0027 1.16061C6.03755 1.13478 6.06565 1.10086 6.08458 1.06173C6.23754 0.743594 6.47671 0.475222 6.77465 0.28742C7.07259 0.0996185 7.41721 0 7.76897 0C8.12073 0 8.46535 0.0996185 8.76329 0.28742C9.06123 0.475222 9.3004 0.743594 9.45336 1.06173C9.47229 1.10086 9.50039 1.13478 9.53524 1.16061C9.5701 1.18643 9.61067 1.20337 9.65348 1.20998C9.69629 1.21659 9.74006 1.21267 9.78103 1.19856C9.822 1.18445 9.85895 1.16056 9.88871 1.12896C10.0629 0.941677 10.2736 0.792482 10.5078 0.690692C10.742 0.588902 10.9945 0.536705 11.2497 0.537362C11.7467 0.537362 12.2234 0.73568 12.5749 1.08869C12.9264 1.4417 13.1239 1.92048 13.1239 2.41971C13.1239 2.91894 12.9264 3.39772 12.5749 3.75073C12.2234 4.10374 11.7467 4.30206 11.2497 4.30206C11.1879 4.30205 11.1281 4.32345 11.0803 4.36266C11.0325 4.40186 10.9996 4.45645 10.9873 4.51719L10.4411 7.26004H9.41641L9.64051 5.68478L9.11037 5.60841L8.87556 7.26004H8.03672V4.30206H7.50122V7.26004H6.66238L6.42757 5.60841L5.89743 5.68478L6.12153 7.26004H5.09687L4.55067 4.51719C4.53833 4.45645 4.50547 4.40186 4.45765 4.36266C4.40984 4.32345 4.35 4.30205 4.28828 4.30206C3.79121 4.30206 3.31449 4.10374 2.96301 3.75073C2.61152 3.39772 2.41406 2.91894 2.41406 2.41971C2.41406 1.92048 2.61152 1.4417 2.96301 1.08869C3.31449 0.73568 3.79121 0.537362 4.28828 0.537362Z" fill="#287ED1"/>
</svg>
