<svg width="21" height="18" viewBox="0 0 21 18" fill="none" xmlns="http://www.w3.org/2000/svg">
<path d="M19.3136 7.63188C18.6772 7.63188 18.1363 8.07733 18.009 8.68187H16.4181L13.7454 4.06824L14.8272 2.98642C15.7499 3.52733 16.8954 2.89097 16.8954 1.84097C16.8954 1.49097 16.7363 1.14097 16.4818 0.88642C15.3363 -0.227216 13.5545 1.2046 14.3818 2.54097L13.2363 3.68642H7.76357L6.61812 2.54097C7.44539 1.17278 5.63175 -0.259034 4.51812 0.88642C3.37266 2.00006 4.80448 3.81369 6.17266 2.98642L7.25448 4.06824L4.58175 8.68187H2.99084C2.83175 8.07733 2.32266 7.63188 1.6863 7.63188C0.922661 7.63188 0.318115 8.26824 0.318115 9.00006C0.318115 9.73187 0.922661 10.3682 1.6863 10.3682C2.32266 10.3682 2.86357 9.92278 2.99084 9.31824H4.58175C4.58175 9.31824 5.34539 10.6228 7.25448 13.9319L6.17266 15.0137C5.24993 14.4728 4.10448 15.141 4.10448 16.1591C4.10448 16.5091 4.23175 16.8591 4.51812 17.1137C5.59993 18.1955 7.47721 16.8591 6.61812 15.4591L7.76357 14.3137H13.2363L14.3818 15.4591C13.5227 16.8591 15.3681 18.2273 16.4818 17.1137C17.5954 16.0001 16.1954 14.1546 14.8272 14.9819L13.7454 13.9001C13.7454 13.9001 13.7454 13.9001 13.7772 13.8682C13.9045 13.6137 14.4772 12.6591 16.3863 9.35006H17.9772C18.1363 9.9546 18.6454 10.4001 19.2818 10.4001C20.0454 10.4001 20.6499 9.79551 20.6499 9.03187C20.6499 8.26824 20.0772 7.63188 19.3136 7.63188ZM14.8908 10.6864C14.2863 9.85915 12.8227 9.73187 11.8045 9.63642C11.6136 9.6046 11.4545 9.76369 11.4545 9.9546C11.3908 10.3364 11.5818 11.0046 10.5636 12.1501C9.92721 11.4501 9.67266 10.8137 9.67266 9.98642C9.67266 9.79551 9.51357 9.63642 9.32266 9.66824C8.24084 9.79551 6.64993 9.92278 6.14084 10.8455L5.12266 9.00006L7.79539 4.3546H13.1727L15.8772 9.00006L14.8908 10.6864Z" fill="#D1D3D4"/>
<path d="M12.4727 6.77274C12.4727 7.82274 11.6136 9.06365 10.5636 9.06365C9.51363 9.06365 8.65454 7.82274 8.65454 6.77274C8.65454 5.72274 9.51363 4.86365 10.5636 4.86365C11.6136 4.86365 12.4727 5.72274 12.4727 6.77274Z" fill="#D1D3D4"/>
</svg>
