<svg width="20" height="20" viewBox="0 0 20 20" fill="none" xmlns="http://www.w3.org/2000/svg">
<path d="M15.8333 10.8333C15.8333 10.9991 15.7674 11.1581 15.6502 11.2753C15.533 11.3925 15.374 11.4583 15.2083 11.4583H14.7916V11.875C14.7916 12.0408 14.7257 12.1997 14.6085 12.3169C14.4913 12.4342 14.3324 12.5 14.1666 12.5C14.0008 12.5 13.8419 12.4342 13.7247 12.3169C13.6074 12.1997 13.5416 12.0408 13.5416 11.875V11.4583H13.1249C12.9592 11.4583 12.8002 11.3925 12.683 11.2753C12.5658 11.1581 12.4999 10.9991 12.4999 10.8333C12.4999 10.6676 12.5658 10.5086 12.683 10.3914C12.8002 10.2742 12.9592 10.2083 13.1249 10.2083H13.5416V9.79167C13.5416 9.62591 13.6074 9.46694 13.7247 9.34973C13.8419 9.23251 14.0008 9.16667 14.1666 9.16667C14.3324 9.16667 14.4913 9.23251 14.6085 9.34973C14.7257 9.46694 14.7916 9.62591 14.7916 9.79167V10.2083H15.2083C15.374 10.2083 15.533 10.2742 15.6502 10.3914C15.7674 10.5086 15.8333 10.6676 15.8333 10.8333ZM18.1249 10.8333C18.1236 11.8827 17.7061 12.8888 16.9641 13.6308C16.2221 14.3729 15.216 14.7903 14.1666 14.7917C13.51 14.7871 12.8651 14.6171 12.2916 14.2975V17.5C12.2916 17.6161 12.2593 17.7298 12.1982 17.8286C12.1372 17.9273 12.0499 18.0071 11.9461 18.059C11.8423 18.1109 11.7261 18.1329 11.6105 18.1225C11.4949 18.1121 11.3844 18.0696 11.2916 18L7.95826 15.5C7.88064 15.4418 7.81763 15.3663 7.77424 15.2795C7.73085 15.1927 7.70826 15.097 7.70826 15V11.6667C7.70831 11.5845 7.69205 11.5032 7.66044 11.4274C7.62882 11.3516 7.58248 11.2828 7.52409 11.225L3.25826 6.95833C3.08339 6.78491 2.94472 6.57848 2.85031 6.35102C2.75589 6.12356 2.70761 5.87961 2.70826 5.63333V3.75C2.70892 3.25292 2.90668 2.77639 3.25816 2.42491C3.60965 2.07342 4.08618 1.87566 4.58326 1.875H15.4166C15.9137 1.87566 16.3902 2.07342 16.7417 2.42491C17.0932 2.77639 17.2909 3.25292 17.2916 3.75V5.63333C17.2922 5.87972 17.2439 6.12378 17.1494 6.35136C17.055 6.57895 16.9164 6.78554 16.7416 6.95917L16.2291 7.47083C16.8065 7.82218 17.284 8.31586 17.6159 8.90461C17.9479 9.49335 18.1231 10.1575 18.1249 10.8333ZM11.0416 16.25V13.2342C10.5047 12.5488 10.2115 11.704 10.2083 10.8333C10.2096 9.78392 10.627 8.77788 11.3691 8.03583C12.1111 7.29379 13.1172 6.87632 14.1666 6.875C14.4379 6.87468 14.7085 6.90261 14.9741 6.95833L15.8574 6.07417C15.9158 6.01639 15.9622 5.9476 15.9938 5.87179C16.0254 5.79598 16.0416 5.71464 16.0416 5.6325V3.75C16.0414 3.58431 15.9755 3.42546 15.8583 3.3083C15.7411 3.19114 15.5823 3.12522 15.4166 3.125H4.58326C4.41757 3.12522 4.25872 3.19114 4.14156 3.3083C4.0244 3.42546 3.95848 3.58431 3.95826 3.75V5.63333C3.95821 5.71547 3.97447 5.79681 4.00608 5.87262C4.03769 5.94844 4.08404 6.01723 4.14243 6.075L8.40826 10.3417C8.58312 10.5151 8.72179 10.7215 8.81621 10.949C8.91063 11.1764 8.95891 11.4204 8.95826 11.6667V14.6875L11.0416 16.25ZM16.8749 10.8333C16.8749 10.2977 16.7161 9.77405 16.4185 9.32866C16.1209 8.88328 15.6979 8.53615 15.203 8.33116C14.7081 8.12617 14.1636 8.07254 13.6382 8.17704C13.1129 8.28154 12.6303 8.53949 12.2515 8.91825C11.8727 9.29702 11.6148 9.7796 11.5103 10.305C11.4058 10.8303 11.4594 11.3749 11.6644 11.8698C11.8694 12.3647 12.2165 12.7876 12.6619 13.0852C13.1073 13.3828 13.6309 13.5417 14.1666 13.5417C14.8846 13.5408 15.573 13.2552 16.0807 12.7474C16.5884 12.2397 16.874 11.5514 16.8749 10.8333Z" fill="#D1D3D4"/>
</svg>
