<svg width="251" height="186" viewBox="0 0 251 186" fill="none" xmlns="http://www.w3.org/2000/svg">
<path d="M80.5213 50.6958H77.1324V47.3035H74.7268V50.6958H71.3384V53.1028H74.7268V56.4952H77.1324V53.1028H80.5213V50.6958Z" fill="#E2EBFF"/>
<path d="M29.2447 21.4728H26.7871V19.0132H25.0425V21.4728H22.5854V23.2189H25.0425V25.6791H26.7871V23.2189H29.2447V21.4728Z" fill="#E2EBFF"/>
<path d="M74.6686 7.49215H72.2105V5.03198H70.4664V7.49215H68.0088V9.2377H70.4664V11.6979H72.2105V9.2377H74.6686V7.49215Z" fill="#E2EBFF"/>
<path d="M226.128 52.6641H223.669V50.204H221.925V52.6641H219.468V54.4097H221.925V56.8699H223.669V54.4097H226.128V52.6641Z" fill="#E2EBFF"/>
<path d="M234.749 35.9104H231.36V32.5181H228.955V35.9104H225.566V38.3174H228.955V41.7098H231.36V38.3174H234.749V35.9104Z" fill="#E2EBFF"/>
<path d="M20.5985 58.7512H17.2095V55.3589H14.804V58.7512H11.4155V61.1582H14.804V64.5506H17.2095V61.1582H20.5985V58.7512Z" fill="#E2EBFF"/>
<path d="M242.093 127.254H239.635V124.794H237.891V127.254H235.434V128.999H237.891V131.46H239.635V128.999H242.093V127.254Z" fill="#E2EBFF"/>
<path d="M88.7785 4.24316C89.9492 4.24316 90.8983 3.29329 90.8983 2.12158C90.8983 0.949865 89.9492 0 88.7785 0C87.6078 0 86.6587 0.949865 86.6587 2.12158C86.6587 3.29329 87.6078 4.24316 88.7785 4.24316Z" fill="#C8D8FF"/>
<path d="M176.552 9.89819C176.552 10.5168 176.051 11.0187 175.432 11.0187C174.814 11.0187 174.313 10.5173 174.313 9.89819C174.313 9.27962 174.814 8.77771 175.432 8.77771C176.051 8.77825 176.552 9.27962 176.552 9.89819Z" fill="#C8D8FF"/>
<path d="M224.919 15.9725C224.919 17.144 223.97 18.0941 222.799 18.0941C221.629 18.0941 220.679 17.1446 220.679 15.9725C220.679 14.8011 221.628 13.851 222.799 13.851C223.97 13.851 224.919 14.8011 224.919 15.9725Z" fill="#C8D8FF"/>
<path d="M12.5364 79.8675C12.5364 80.4861 12.0354 80.988 11.4169 80.988C10.7988 80.988 10.2979 80.4866 10.2979 79.8675C10.2979 79.2489 10.7988 78.7476 11.4169 78.7476C12.0349 78.747 12.5364 79.2484 12.5364 79.8675Z" fill="#C8D8FF"/>
<path d="M249.946 118.49C249.946 119.661 248.997 120.611 247.826 120.611C246.655 120.611 245.706 119.662 245.706 118.49C245.706 117.318 246.655 116.368 247.826 116.368C248.997 116.369 249.946 117.318 249.946 118.49Z" fill="#C8D8FF"/>
<path d="M13.5324 41.0996C14.7032 41.0996 15.6522 40.1497 15.6522 38.978C15.6522 37.8063 14.7032 36.8564 13.5324 36.8564C12.3617 36.8564 11.4126 37.8063 11.4126 38.978C11.4126 40.1497 12.3617 41.0996 13.5324 41.0996Z" fill="#C8D8FF"/>
<path d="M125.5 186C194.812 186 251 178.505 251 169.259C251 160.013 194.812 152.517 125.5 152.517C56.1883 152.517 0 160.013 0 169.259C0 178.505 56.1883 186 125.5 186Z" fill="#EDF0FC"/>
<path d="M206.775 165.793C206.775 167.437 205.431 168.782 203.788 168.782H47.2104C45.5671 168.782 44.2231 167.437 44.2231 165.793V64.4338C44.2231 62.7891 45.5677 61.4435 47.2104 61.4435H203.788C205.431 61.4435 206.775 62.7891 206.775 64.4338V165.793Z" fill="#D7E7FF"/>
<path d="M198.976 69.8126H52.0234V163.295H198.976V69.8126Z" fill="#C8D8FF"/>
<path d="M33.6626 158.954V167.59C33.6626 169.448 35.1817 170.968 37.0386 170.968H213.962C215.819 170.968 217.338 169.448 217.338 167.59V158.954H33.6626Z" fill="#D7E7FF"/>
<path d="M105.502 158.571V164.731C105.502 165.281 105.952 165.732 106.502 165.732H144.498C145.048 165.732 145.498 165.281 145.498 164.731V158.571H105.502Z" fill="#E8F5FF"/>
<path d="M187.904 77.7751H60.4155V151.546H187.904V77.7751Z" fill="white"/>
<path d="M187.904 77.7751H60.4155V84.8838H187.904V77.7751Z" fill="#E2EBFF"/>
<path d="M66.6126 81.4938C66.6126 82.3923 65.885 83.1205 64.9872 83.1205C64.0894 83.1205 63.3618 82.3923 63.3618 81.4938C63.3618 80.5952 64.0894 79.8671 64.9872 79.8671C65.885 79.8671 66.6126 80.5952 66.6126 81.4938Z" fill="#EB725F"/>
<path d="M72.0857 81.4938C72.0857 82.3923 71.3581 83.1205 70.4603 83.1205C69.5625 83.1205 68.835 82.3923 68.835 81.4938C68.835 80.5952 69.5625 79.8671 70.4603 79.8671C71.3581 79.8671 72.0857 80.5952 72.0857 81.4938Z" fill="#F9AB43"/>
<path d="M77.5574 81.4938C77.5574 82.3923 76.8298 83.1205 75.932 83.1205C75.0342 83.1205 74.3066 82.3923 74.3066 81.4938C74.3066 80.5952 75.0342 79.8671 75.932 79.8671C76.8298 79.8671 77.5574 80.5952 77.5574 81.4938Z" fill="#9DC6FF"/>
<path d="M122.202 122.214C122.202 120.17 123.013 118.576 124.635 117.434L125.416 116.893C126.157 116.413 126.672 116.017 126.962 115.706C127.252 115.396 127.398 115.01 127.398 114.549C127.398 113.386 126.426 112.805 124.484 112.805C123.583 112.805 122.652 112.926 121.691 113.166C120.73 113.406 119.819 113.748 118.958 114.188V109.559C120.8 108.717 122.863 108.297 125.145 108.297C127.607 108.297 129.56 108.813 131.001 109.845C132.443 110.877 133.164 112.305 133.164 114.128C133.164 115.15 132.934 115.976 132.474 116.607C132.013 117.238 131.232 117.945 130.131 118.726C129.39 119.268 128.85 119.683 128.509 119.974C128.169 120.265 127.913 120.59 127.744 120.951C127.573 121.312 127.488 121.753 127.488 122.273V122.845H122.202V122.214ZM122.818 129.412C122.287 128.882 122.022 128.225 122.022 127.443C122.022 126.642 122.287 125.98 122.818 125.459C123.348 124.939 124.015 124.678 124.815 124.678C125.596 124.678 126.262 124.943 126.812 125.475C127.362 126.006 127.638 126.662 127.638 127.444C127.638 128.225 127.362 128.882 126.812 129.413C126.261 129.943 125.596 130.209 124.815 130.209C124.015 130.209 123.348 129.943 122.818 129.412Z" fill="#C8D8FF"/>
<path d="M125.503 144.084C111.394 144.084 99.9155 132.596 99.9155 118.475C99.9155 104.354 111.394 92.8668 125.503 92.8668C139.612 92.8668 151.09 104.355 151.09 118.475C151.09 132.596 139.612 144.084 125.503 144.084ZM125.503 94.4409C112.261 94.4409 101.489 105.222 101.489 118.474C101.489 131.727 112.261 142.508 125.503 142.508C138.744 142.508 149.516 131.727 149.516 118.474C149.516 105.222 138.744 94.4409 125.503 94.4409Z" fill="#C8D8FF"/>
<path d="M88.7782 116.386H13.5308V164.294H88.7782V116.386Z" fill="#F5F9FF"/>
<path d="M88.7782 116.386H13.5308V122.361H88.7782V116.386Z" fill="#E2EBFF"/>
<path d="M17.3735 120.879C18.1281 120.879 18.7398 120.267 18.7398 119.512C18.7398 118.756 18.1281 118.144 17.3735 118.144C16.619 118.144 16.0073 118.756 16.0073 119.512C16.0073 120.267 16.619 120.879 17.3735 120.879Z" fill="#EB725F"/>
<path d="M23.3404 119.512C23.3404 120.267 22.7288 120.879 21.9741 120.879C21.2195 120.879 20.6079 120.267 20.6079 119.512C20.6079 118.756 21.2195 118.144 21.9741 118.144C22.7288 118.144 23.3404 118.756 23.3404 119.512Z" fill="#F9AB43"/>
<path d="M26.5762 120.879C27.3307 120.879 27.9424 120.267 27.9424 119.512C27.9424 118.756 27.3307 118.144 26.5762 118.144C25.8216 118.144 25.21 118.756 25.21 119.512C25.21 120.267 25.8216 120.879 26.5762 120.879Z" fill="#9DC6FF"/>
<path d="M169.829 13.424H94.5815V61.3325H169.829V13.424Z" fill="#F5F9FF"/>
<path d="M169.829 13.424H94.5815V19.3991H169.829V13.424Z" fill="#E2EBFF"/>
<path d="M98.4263 17.9171C99.1808 17.9171 99.7925 17.3049 99.7925 16.5497C99.7925 15.7946 99.1808 15.1824 98.4263 15.1824C97.6717 15.1824 97.0601 15.7946 97.0601 16.5497C97.0601 17.3049 97.6717 17.9171 98.4263 17.9171Z" fill="#C1D1F4"/>
<path d="M104.393 16.5497C104.393 17.305 103.782 17.9171 103.027 17.9171C102.272 17.9171 101.661 17.305 101.661 16.5497C101.661 15.7944 102.272 15.1824 103.027 15.1824C103.782 15.1824 104.393 15.7944 104.393 16.5497Z" fill="#C1D1F4"/>
<path d="M107.629 17.9171C108.383 17.9171 108.995 17.3049 108.995 16.5497C108.995 15.7946 108.383 15.1824 107.629 15.1824C106.874 15.1824 106.263 15.7946 106.263 16.5497C106.263 17.3049 106.874 17.9171 107.629 17.9171Z" fill="#C1D1F4"/>
<path d="M163.128 24.6097H87.8804V72.5183H163.128V24.6097Z" fill="#F5F9FF"/>
<path d="M163.128 24.6097H87.8804V30.5849H163.128V24.6097Z" fill="#E2EBFF"/>
<path d="M91.7212 29.1022C92.4757 29.1022 93.0874 28.49 93.0874 27.7348C93.0874 26.9796 92.4757 26.3674 91.7212 26.3674C90.9667 26.3674 90.355 26.9796 90.355 27.7348C90.355 28.49 90.9667 29.1022 91.7212 29.1022Z" fill="#EB725F"/>
<path d="M97.688 27.7348C97.688 28.4901 97.0765 29.1022 96.3218 29.1022C95.5671 29.1022 94.9556 28.4901 94.9556 27.7348C94.9556 26.9795 95.5671 26.3674 96.3218 26.3674C97.0759 26.3674 97.688 26.9795 97.688 27.7348Z" fill="#F9AB43"/>
<path d="M100.922 29.1022C101.677 29.1022 102.289 28.49 102.289 27.7348C102.289 26.9796 101.677 26.3674 100.922 26.3674C100.168 26.3674 99.5562 26.9796 99.5562 27.7348C99.5562 28.49 100.168 29.1022 100.922 29.1022Z" fill="#9DC6FF"/>
<path d="M139.12 65.114H112.024C110.497 65.114 109.29 64.5031 108.713 63.438C108.137 62.3728 108.285 61.0272 109.121 59.7472V59.7466L122.318 39.5102C123.126 38.2715 124.312 37.5607 125.572 37.5607C126.832 37.5607 128.018 38.2715 128.826 39.5097L142.024 59.7472C142.859 61.0277 143.007 62.3728 142.431 63.438C141.854 64.5025 140.648 65.114 139.12 65.114ZM111.52 61.3137C111.224 61.7678 111.22 62.031 111.235 62.0766C111.26 62.1053 111.482 62.2459 112.024 62.2459H139.119C139.661 62.2459 139.883 62.1048 139.913 62.0673C139.924 62.0304 139.92 61.7673 139.624 61.3131L126.426 41.0762C126.161 40.6698 125.842 40.4272 125.572 40.4272C125.302 40.4272 124.982 40.6698 124.717 41.0767L111.52 61.3137Z" fill="#78BBFF"/>
<path d="M124.741 59.6267C124.523 59.4075 124.413 59.1373 124.413 58.8155C124.413 58.4938 124.523 58.223 124.741 58.0044C124.96 57.7851 125.23 57.6755 125.552 57.6755C125.874 57.6755 126.147 57.7851 126.373 58.0044C126.597 58.2236 126.711 58.4938 126.711 58.8155C126.711 59.1378 126.597 59.4081 126.373 59.6267C126.147 59.8454 125.874 59.955 125.552 59.955C125.23 59.955 124.96 59.8454 124.741 59.6267ZM124.066 46.1615H127.077L126.518 55.8014H124.625L124.066 46.1615Z" fill="#78BBFF"/>
<path d="M46.7036 47.692C46.1908 47.692 45.7196 47.7885 45.3444 47.9486C45.1954 47.0376 44.8392 46.1987 44.3225 45.4798C44.702 45.3278 45.1032 45.0674 45.467 44.7033C46.3317 43.8384 46.6489 42.7532 46.1767 42.2806C45.7039 41.8074 44.6201 42.1254 43.7559 42.9909C43.3922 43.3549 43.1325 43.7565 42.9801 44.1363C42.2618 43.6192 41.4236 43.2627 40.5133 43.1135C40.6733 42.738 40.7698 42.2665 40.7698 41.7532C40.7698 40.5296 40.2282 39.5377 39.5597 39.5377C38.8912 39.5377 38.3496 40.5296 38.3496 41.7532C38.3496 42.2665 38.4461 42.738 38.606 43.1135C37.6958 43.2627 36.8576 43.6192 36.1393 44.1363C35.9875 43.7565 35.7272 43.3549 35.3634 42.9909C34.4992 42.1259 33.4149 41.808 32.9427 42.2806C32.47 42.7537 32.7877 43.8384 33.6524 44.7033C34.0162 45.0674 34.4174 45.3273 34.7969 45.4798C34.2802 46.1987 33.924 47.0376 33.7749 47.9486C33.3998 47.7885 32.9286 47.692 32.4158 47.692C31.1932 47.692 30.2021 48.234 30.2021 48.9031C30.2021 49.5721 31.1932 50.1141 32.4158 50.1141C32.9286 50.1141 33.3998 50.0176 33.7749 49.8575C33.924 50.7685 34.2802 51.6074 34.7969 52.3263C34.4174 52.4783 34.0162 52.7387 33.6524 53.1028C32.7877 53.9677 32.4705 55.0529 32.9427 55.5261C33.4155 55.9992 34.4992 55.6812 35.3634 54.8158C35.7272 54.4517 35.9869 54.0502 36.1393 53.6704C36.8576 54.1875 37.6958 54.5439 38.606 54.6932C38.4461 55.0686 38.3496 55.5402 38.3496 56.0535C38.3496 57.277 38.8912 58.2689 39.5597 58.2689C40.2282 58.2689 40.7698 57.277 40.7698 56.0535C40.7698 55.5402 40.6733 55.0686 40.5133 54.6932C41.4236 54.5439 42.2618 54.1875 42.9801 53.6704C43.1319 54.0502 43.3922 54.4517 43.7559 54.8158C44.6201 55.6812 45.7044 55.9987 46.1767 55.5261C46.6494 55.0529 46.3317 53.9682 45.467 53.1028C45.1032 52.7387 44.702 52.4788 44.3225 52.3263C44.8392 51.6074 45.1954 50.7685 45.3444 49.8575C45.7196 50.0176 46.1908 50.1141 46.7036 50.1141C47.9262 50.1141 48.9172 49.5721 48.9172 48.9031C48.9172 48.234 47.9262 47.692 46.7036 47.692ZM39.5591 52.7648C37.4285 52.7648 35.7007 51.036 35.7007 48.9031C35.7007 46.7706 37.4279 45.0413 39.5591 45.0413C41.6903 45.0413 43.4176 46.7701 43.4176 48.9031C43.4176 51.036 41.6898 52.7648 39.5591 52.7648Z" fill="#9DC6FF"/>
<path d="M65.8601 34.6539C65.1689 34.3755 64.4825 34.2496 63.8899 34.2621C64.1822 32.9544 64.1572 31.6305 63.8504 30.3819C64.444 30.383 65.1255 30.2501 65.8124 29.9571C67.4454 29.2609 68.4608 27.9717 68.0802 27.078C67.6996 26.1844 66.0678 26.0248 64.4348 26.721C63.7474 27.014 63.1803 27.4139 62.7699 27.8431C62.0824 26.7568 61.1461 25.8219 60.0011 25.1274C60.4202 24.7085 60.8051 24.1257 61.0832 23.4339C61.7457 21.786 61.5533 20.1561 60.6528 19.7931C59.7522 19.4306 58.4852 20.4724 57.8227 22.1208C57.5446 22.8126 57.4194 23.4996 57.4313 24.0926C56.1247 23.7996 54.8019 23.8251 53.5544 24.1322C53.5554 23.5381 53.4226 22.856 53.1299 22.1686C52.4337 20.5342 51.1461 19.518 50.2532 19.8989C49.3603 20.2798 49.2009 21.913 49.8965 23.5473C50.1892 24.2353 50.5888 24.8029 51.0176 25.2137C49.9322 25.9017 48.9981 26.8388 48.3042 27.9847C47.8856 27.5653 47.3033 27.18 46.6121 26.9017C44.9656 26.2386 43.3364 26.4313 42.9743 27.3325C42.6121 28.2338 43.653 29.5019 45.3001 30.1649C45.9913 30.4433 46.6777 30.5691 47.2703 30.5567C46.9781 31.8643 47.003 33.1883 47.3099 34.4368C46.7162 34.4357 46.0347 34.5687 45.3478 34.8617C43.7148 35.5578 42.6994 36.8471 43.08 37.7407C43.4606 38.6344 45.0925 38.7939 46.726 38.0978C47.4134 37.8048 47.9805 37.4049 48.3909 36.9757C49.0784 38.0619 50.0147 38.9969 51.1597 39.6914C50.7406 40.1108 50.3557 40.693 50.0775 41.3849C49.415 43.0333 49.6075 44.6633 50.508 45.0257C51.4085 45.3882 52.6755 44.3464 53.338 42.698C53.6162 42.0061 53.7419 41.3192 53.7295 40.7261C55.0361 41.0191 56.3584 40.9936 57.6059 40.6865C57.6048 41.2807 57.7376 41.9627 58.0304 42.6502C58.7265 44.2845 60.0141 45.3008 60.907 44.9199C61.7999 44.539 61.9593 42.9058 61.2638 41.2709C60.971 40.5829 60.5714 40.0153 60.1426 39.6046C61.228 38.9165 62.1621 37.9795 62.8561 36.8335C63.2746 37.2529 63.8569 37.6382 64.5481 37.9165C66.1946 38.5796 67.8238 38.387 68.186 37.4857C68.5481 36.585 67.5072 35.3169 65.8601 34.6539ZM53.4893 37.611C50.6186 36.4553 49.2285 33.1888 50.3833 30.3163C51.5386 27.4432 54.8019 26.052 57.672 27.2077C60.5422 28.3635 61.9328 31.6299 60.778 34.5025C59.6232 37.3756 56.3595 38.7673 53.4893 37.611Z" fill="#9DC6FF"/>
<path d="M173.626 50.9815C173.626 51.6001 173.125 52.102 172.506 52.102C171.888 52.102 171.387 51.6006 171.387 50.9815C171.387 50.3624 171.888 49.8616 172.506 49.8616C173.125 49.8616 173.626 50.3629 173.626 50.9815Z" fill="#EEF1FF"/>
<path d="M23.8772 147V138.342H25.3614L29.5296 144.6V138.342H31.0139V147H29.5296L25.3614 140.754V147H23.8772ZM35.6122 147.148C35.0185 147.148 34.4825 147.012 34.0043 146.74C33.5343 146.46 33.1632 146.076 32.8911 145.59C32.6272 145.095 32.4953 144.53 32.4953 143.895C32.4953 143.244 32.6314 142.675 32.9035 142.189C33.1756 141.694 33.5466 141.31 34.0166 141.038C34.4949 140.758 35.0309 140.618 35.6246 140.618C36.2183 140.618 36.7501 140.758 37.2201 141.038C37.6984 141.31 38.0694 141.69 38.3333 142.176C38.6054 142.663 38.7414 143.232 38.7414 143.883C38.7414 144.535 38.6054 145.103 38.3333 145.59C38.0612 146.076 37.686 146.46 37.2077 146.74C36.7377 147.012 36.2059 147.148 35.6122 147.148ZM35.6122 145.874C35.909 145.874 36.177 145.8 36.4162 145.652C36.6635 145.503 36.8614 145.281 37.0098 144.984C37.1583 144.687 37.2325 144.32 37.2325 143.883C37.2325 143.446 37.1583 143.083 37.0098 142.795C36.8697 142.498 36.6759 142.275 36.4285 142.127C36.1894 141.978 35.9214 141.904 35.6246 141.904C35.336 141.904 35.068 141.978 34.8206 142.127C34.5732 142.275 34.3753 142.498 34.2269 142.795C34.0785 143.083 34.0043 143.446 34.0043 143.883C34.0043 144.32 34.0785 144.687 34.2269 144.984C34.3753 145.281 34.5691 145.503 34.8082 145.652C35.0556 145.8 35.3236 145.874 35.6122 145.874ZM43.2635 147V138.342H44.7478V145.837H48.6068V147H43.2635ZM52.6435 147.148C52.025 147.148 51.4808 147.016 51.0108 146.753C50.5408 146.481 50.1739 146.101 49.91 145.615C49.6461 145.128 49.5142 144.568 49.5142 143.933C49.5142 143.273 49.642 142.696 49.8976 142.201C50.1615 141.706 50.5284 141.319 50.9984 141.038C51.4767 140.758 52.0292 140.618 52.6558 140.618C53.266 140.618 53.7979 140.754 54.2514 141.026C54.7049 141.298 55.0553 141.665 55.3027 142.127C55.5501 142.58 55.6738 143.092 55.6738 143.66C55.6738 143.743 55.6738 143.834 55.6738 143.933C55.6738 144.032 55.6655 144.135 55.649 144.242H50.5779V143.289H54.1772C54.1607 142.836 54.0081 142.481 53.7195 142.226C53.4309 141.962 53.0722 141.83 52.6435 141.83C52.3384 141.83 52.058 141.9 51.8024 142.04C51.5468 142.18 51.3448 142.391 51.1963 142.671C51.0479 142.943 50.9737 143.289 50.9737 143.71V144.069C50.9737 144.456 51.0438 144.79 51.184 145.07C51.3324 145.351 51.5303 145.565 51.7777 145.714C52.0333 145.854 52.3178 145.924 52.6311 145.924C52.9774 145.924 53.2619 145.85 53.4845 145.701C53.7154 145.553 53.8844 145.355 53.9916 145.108H55.5006C55.3852 145.495 55.1955 145.846 54.9317 146.159C54.6678 146.464 54.3421 146.707 53.9545 146.889C53.567 147.062 53.13 147.148 52.6435 147.148ZM59.1221 147.148C58.6109 147.148 58.1862 147.062 57.8481 146.889C57.5101 146.716 57.2586 146.485 57.0936 146.196C56.9287 145.907 56.8463 145.594 56.8463 145.256C56.8463 144.86 56.9452 144.518 57.1431 144.229C57.3493 143.941 57.6502 143.718 58.046 143.562C58.4418 143.397 58.9283 143.314 59.5055 143.314H61.0763C61.0763 142.984 61.031 142.712 60.9403 142.498C60.8496 142.275 60.7094 142.11 60.5197 142.003C60.3301 141.896 60.0868 141.842 59.79 141.842C59.4519 141.842 59.1633 141.921 58.9242 142.077C58.6851 142.226 58.5367 142.457 58.4789 142.77H57.0194C57.0689 142.325 57.2173 141.945 57.4647 141.632C57.7121 141.31 58.0378 141.063 58.4418 140.89C58.8541 140.709 59.3035 140.618 59.79 140.618C60.3754 140.618 60.8743 140.721 61.2866 140.927C61.6989 141.125 62.0122 141.414 62.2266 141.793C62.4493 142.164 62.5606 142.613 62.5606 143.141V147H61.299L61.1505 145.998C61.0681 146.163 60.9609 146.316 60.829 146.456C60.7053 146.596 60.561 146.72 60.3961 146.827C60.2311 146.926 60.0415 147.004 59.8271 147.062C59.621 147.12 59.386 147.148 59.1221 147.148ZM59.4561 145.973C59.6952 145.973 59.9054 145.932 60.0868 145.85C60.2765 145.759 60.4373 145.635 60.5692 145.479C60.7094 145.314 60.8166 145.132 60.8908 144.934C60.965 144.737 61.0145 144.526 61.0392 144.304V144.279H59.6663C59.3777 144.279 59.1386 144.316 58.9489 144.39C58.7593 144.456 58.6232 144.555 58.5408 144.687C58.4583 144.819 58.4171 144.972 58.4171 145.145C58.4171 145.318 58.4583 145.466 58.5408 145.59C58.6232 145.714 58.7428 145.808 58.8995 145.874C59.0561 145.94 59.2417 145.973 59.4561 145.973ZM66.917 147.148C66.3398 147.148 65.8245 147.008 65.3709 146.728C64.9174 146.448 64.5629 146.06 64.3072 145.565C64.0599 145.07 63.9362 144.51 63.9362 143.883C63.9362 143.256 64.064 142.7 64.3196 142.213C64.5752 141.719 64.9298 141.331 65.3833 141.051C65.8451 140.762 66.3646 140.618 66.9418 140.618C67.4118 140.618 67.8199 140.709 68.1663 140.89C68.5208 141.063 68.8012 141.31 69.0073 141.632V138.095H70.4915V147H69.1557L69.0073 146.097C68.8754 146.278 68.7146 146.452 68.5249 146.617C68.3353 146.773 68.1085 146.901 67.8447 147C67.5808 147.099 67.2716 147.148 66.917 147.148ZM67.2262 145.862C67.5808 145.862 67.8941 145.78 68.1663 145.615C68.4384 145.442 68.6486 145.207 68.7971 144.91C68.9455 144.613 69.0197 144.271 69.0197 143.883C69.0197 143.496 68.9455 143.153 68.7971 142.857C68.6486 142.56 68.4384 142.329 68.1663 142.164C67.8941 141.999 67.5808 141.917 67.2262 141.917C66.8882 141.917 66.5831 141.999 66.311 142.164C66.0389 142.329 65.8245 142.56 65.6678 142.857C65.5194 143.153 65.4452 143.496 65.4452 143.883C65.4452 144.271 65.5194 144.613 65.6678 144.91C65.8245 145.207 66.0389 145.442 66.311 145.615C66.5831 145.78 66.8882 145.862 67.2262 145.862ZM74.6287 147.148C74.0762 147.148 73.5938 147.062 73.1815 146.889C72.7775 146.707 72.4559 146.46 72.2168 146.147C71.9859 145.825 71.8498 145.458 71.8086 145.046H73.2928C73.3341 145.219 73.4083 145.38 73.5155 145.528C73.6227 145.668 73.767 145.78 73.9484 145.862C74.138 145.945 74.3607 145.986 74.6163 145.986C74.8637 145.986 75.0657 145.953 75.2223 145.887C75.379 145.813 75.4945 145.718 75.5687 145.602C75.6429 145.487 75.68 145.363 75.68 145.231C75.68 145.033 75.6264 144.881 75.5192 144.774C75.412 144.666 75.2553 144.584 75.0492 144.526C74.8513 144.46 74.6122 144.398 74.3318 144.341C74.035 144.283 73.7464 144.213 73.466 144.13C73.1939 144.04 72.9465 143.928 72.7239 143.797C72.5095 143.665 72.3363 143.496 72.2044 143.289C72.0807 143.083 72.0189 142.832 72.0189 142.535C72.0189 142.172 72.1137 141.846 72.3034 141.558C72.5013 141.269 72.7816 141.042 73.1444 140.878C73.5155 140.704 73.9566 140.618 74.4679 140.618C75.1935 140.618 75.7707 140.787 76.1995 141.125C76.6365 141.455 76.8921 141.921 76.9663 142.523H75.5563C75.5151 142.292 75.3996 142.114 75.21 141.991C75.0203 141.859 74.7688 141.793 74.4555 141.793C74.1339 141.793 73.8865 141.855 73.7134 141.978C73.5485 142.094 73.466 142.25 73.466 142.448C73.466 142.572 73.5155 142.687 73.6144 142.795C73.7216 142.894 73.8742 142.98 74.0721 143.054C74.27 143.12 74.5132 143.186 74.8018 143.252C75.2636 143.343 75.6717 143.45 76.0263 143.574C76.3809 143.698 76.6612 143.879 76.8674 144.118C77.0735 144.357 77.1766 144.695 77.1766 145.132C77.1848 145.528 77.0818 145.879 76.8674 146.184C76.6612 146.489 76.3685 146.728 75.9892 146.901C75.6099 147.066 75.1564 147.148 74.6287 147.148Z" fill="#8EC7FF"/>
</svg>
