<svg width="374" height="333" viewBox="0 0 374 333" fill="none" xmlns="http://www.w3.org/2000/svg">
<path d="M374 285.704H0V285.891H374V285.704Z" fill="#D1E3FF"/>
<path d="M333.299 290.512H315.906V290.698H333.299V290.512Z" fill="#D1E3FF"/>
<path d="M270.028 294.569H187.423V294.756H270.028V294.569Z" fill="#D1E3FF"/>
<path d="M152.095 294.663H143.992V294.849H152.095V294.663Z" fill="#D1E3FF"/>
<path d="M86.4368 292.421H58.345V292.608H86.4368V292.421Z" fill="#D1E3FF"/>
<path d="M308.665 290.512H292.221V290.698H308.665V290.512Z" fill="#D1E3FF"/>
<path d="M52.2361 292.421H38.6322V292.608H52.2361V292.421Z" fill="#D1E3FF"/>
<path d="M177.285 252.383H32.8471C30.4932 252.383 28.5775 250.469 28.5775 248.118V45.3213C28.5775 42.9701 30.4932 41.0566 32.8471 41.0566H177.285C179.638 41.0566 181.554 42.9701 181.554 45.3213V248.118C181.554 250.469 179.638 252.383 177.285 252.383ZM32.8471 41.2442C30.5956 41.2442 28.7645 43.0732 28.7645 45.322V248.119C28.7645 250.368 30.5956 252.197 32.8471 252.197H177.285C179.536 252.197 181.367 250.368 181.367 248.119V45.3213C181.367 43.0732 179.536 41.2434 177.285 41.2434L32.8471 41.2442Z" fill="#D1E3FF"/>
<path d="M339.078 252.383H194.64C192.287 252.383 190.371 250.469 190.371 248.118V45.3213C190.371 42.9701 192.287 41.0566 194.64 41.0566H339.078C341.432 41.0566 343.347 42.9701 343.347 45.3213V248.118C343.348 250.469 341.432 252.383 339.078 252.383ZM194.64 41.2442C192.389 41.2442 190.558 43.0732 190.558 45.322V248.119C190.558 250.368 192.389 252.197 194.64 252.197H339.078C341.329 252.197 343.16 250.368 343.16 248.119V45.3213C343.16 43.0732 341.329 41.2434 339.078 41.2434L194.64 41.2442Z" fill="#D1E3FF"/>
<path d="M242.027 153.25H298.557V54.952H242.027V153.25Z" fill="#D1E3FF"/>
<path d="M238.973 153.25H295.503V54.952H238.973V153.25Z" fill="#F3F8FF"/>
<path d="M290.019 148.636V59.5647L244.455 59.5647V148.636H290.019Z" fill="white"/>
<path d="M246.763 148.637L246.763 59.5652H244.454L244.454 148.637H246.763Z" fill="#D1E3FF"/>
<path d="M241.242 127.145H293.235V120.952H241.242V127.145Z" fill="#F3F8FF"/>
<path d="M145.966 153.25H202.495V54.952H145.966V153.25Z" fill="#D1E3FF"/>
<path d="M142.912 153.25H199.441V54.952H142.912V153.25Z" fill="#F3F8FF"/>
<path d="M193.958 148.637L193.958 59.5652L148.393 59.5652V148.637H193.958Z" fill="white"/>
<path d="M150.701 148.636L150.701 59.5647H148.392L148.392 148.636H150.701Z" fill="#D1E3FF"/>
<path d="M145.18 127.145H197.174V120.952H145.18V127.145Z" fill="#F3F8FF"/>
<path d="M49.9042 153.25H106.434L106.434 54.952H49.9042L49.9042 153.25Z" fill="#D1E3FF"/>
<path d="M46.8502 153.25H103.38L103.38 54.952H46.8502L46.8502 153.25Z" fill="#F3F8FF"/>
<path d="M97.896 148.637L97.896 59.5652L52.3316 59.5652L52.3316 148.637H97.896Z" fill="white"/>
<path d="M54.6397 148.637L54.6397 59.5652H52.3306L52.3306 148.637H54.6397Z" fill="#D1E3FF"/>
<path d="M49.1186 127.145H101.112V120.952H49.1186V127.145Z" fill="#F3F8FF"/>
<path d="M104.735 214.068C94.5423 215.472 88.2351 193.346 110.748 174.61C109.531 196.298 122.504 211.621 104.735 214.068Z" fill="#D1E3FF"/>
<path d="M97.2517 243.05C82.4735 232.705 92.5887 196.549 138.327 199.169C118.537 225.782 123.016 261.086 97.2517 243.05Z" fill="#CADEFC"/>
<path d="M102.467 242.807C112.291 232.239 98.3091 205.649 62.9691 215.359C82.9175 232.863 85.3402 261.231 102.467 242.807Z" fill="#CADEFC"/>
<path d="M89.8686 227.397C86.4719 223.266 82.4567 218.617 83.4321 213.707C84.4389 208.749 86.8377 205.133 84.9034 199.902C82.5861 193.63 83.0356 186.141 86.9529 186.766C90.8634 187.396 95.2639 191.981 95.1465 198.062C95.0754 203.947 98.9254 205.827 102.548 208.96C106.159 212.067 107.571 216.66 108.219 221.179C109.362 228.306 118.597 226.954 121.053 233.147C123.582 239.116 118.53 247.078 110.444 248.907C102.328 250.744 96.5991 251.878 91.0871 245.58C85.4786 238.882 94.8914 233.318 89.8686 227.397Z" fill="#F3F8FF"/>
<path d="M117.683 285.704H87.3112L85.0185 244.374H119.975L117.683 285.704Z" fill="#E3EEFF"/>
<path d="M122.238 243.528H82.7544V247.98H122.238V243.528Z" fill="#E3EEFF"/>
<path d="M296.761 280.095H317.195V191.578H296.761V280.095Z" fill="#E3EEFF"/>
<path d="M136.628 285.703H313.272V280.095H136.628V285.703Z" fill="#E3EEFF"/>
<path d="M296.761 191.578H132.704V280.095H296.761V191.578Z" fill="#F3F8FF"/>
<path d="M288.73 202.473H140.739V231.503H288.73V202.473Z" fill="#E3EEFF"/>
<path d="M288.73 240.169H140.739V269.199H288.73V240.169Z" fill="#E3EEFF"/>
<path d="M168.702 218.979H260.768C261.863 218.979 262.76 218.083 262.76 216.989C262.76 215.894 261.863 214.998 260.768 214.998H168.702C167.606 214.998 166.709 215.894 166.709 216.989C166.708 218.083 167.605 218.979 168.702 218.979Z" fill="#F3F8FF"/>
<path d="M168.702 256.675H260.768C261.863 256.675 262.76 255.779 262.76 254.685C262.76 253.59 261.863 252.694 260.768 252.694H168.702C167.606 252.694 166.709 253.59 166.709 254.685C166.708 255.779 167.605 256.675 168.702 256.675Z" fill="#F3F8FF"/>
<path d="M251.466 178.663C251.466 178.663 274.885 200.821 288.78 178.571C288.78 178.571 285.085 171.423 281.186 170.808C277.289 170.194 277.13 176.996 273.689 174.898C270.247 172.8 266.261 165.621 264.078 169.454C261.896 173.288 258.897 167.823 255.627 167.512C252.356 167.2 251.466 178.663 251.466 178.663Z" fill="#F3F8FF"/>
<path d="M290.27 177.134C290.27 177.134 289.756 191.578 270.027 191.578C250.299 191.578 249.784 177.134 249.784 177.134H290.27Z" fill="#E3EEFF"/>
<path d="M190.451 169.6H201.813V191.579H168.447C168.448 179.44 178.299 169.6 190.451 169.6Z" fill="#F3F8FF"/>
<path d="M212.294 169.6H201.814V191.579H212.294V169.6Z" fill="#D1E3FF"/>
<path d="M187 319.447C267.097 319.447 332.029 315.659 332.029 310.987C332.029 306.315 267.097 302.527 187 302.527C106.902 302.527 41.9706 306.315 41.9706 310.987C41.9706 315.659 106.902 319.447 187 319.447Z" fill="#F0F6FF"/>
<path d="M163.084 147.754C162.881 148.061 162.754 148.241 162.594 148.462C162.441 148.676 162.289 148.877 162.135 149.077C161.827 149.481 161.507 149.855 161.186 150.234C160.538 150.978 159.876 151.704 159.178 152.387C157.78 153.754 156.277 154.998 154.71 156.152C153.133 157.295 151.461 158.303 149.735 159.203C148.86 159.629 147.988 160.064 147.084 160.423L145.729 160.962L145.352 161.107C145.141 161.177 144.944 161.251 144.717 161.3C144.277 161.405 143.806 161.472 143.333 161.461C142.381 161.458 141.478 161.186 140.779 160.819C140.069 160.452 139.518 160.013 139.053 159.573C138.132 158.684 137.505 157.777 136.964 156.883C135.91 155.084 135.189 153.302 134.577 151.507C133.381 147.911 132.572 144.355 132.069 140.661L135.196 139.975C135.761 141.611 136.343 143.304 136.991 144.928C137.61 146.567 138.279 148.18 139.023 149.718C139.763 151.249 140.552 152.748 141.449 153.972C141.884 154.583 142.361 155.115 142.774 155.436C142.977 155.595 143.158 155.691 143.257 155.719C143.363 155.75 143.352 155.719 143.301 155.702C143.278 155.7 143.256 155.689 143.25 155.686C143.245 155.691 143.253 155.671 143.256 155.673L143.5 155.555L144.618 155.015C145.362 154.656 146.073 154.23 146.798 153.837C148.219 152.994 149.578 152.056 150.894 151.064C152.194 150.049 153.426 148.947 154.579 147.78C155.168 147.208 155.719 146.603 156.253 145.995C156.514 145.689 156.777 145.378 157.018 145.071L157.379 144.616L157.673 144.226L163.084 147.754Z" fill="#F5AF9C"/>
<path d="M154.007 147.435L157.8 156.516L155.057 158.232L150.794 149.986L154.007 147.435Z" fill="#14365B"/>
<path d="M164.739 139.782C158.553 139.697 152.272 147.523 152.113 147.716L157.009 159.204C157.009 159.204 167.891 150.38 168.436 146.931C169.004 143.34 168.661 139.836 164.739 139.782Z" fill="#00337D"/>
<path d="M134.666 138.796L130.383 135.472L129.521 142.013C129.521 142.013 133.678 143.644 135.894 142.232L135.834 141.038C135.79 140.157 135.363 139.338 134.666 138.796Z" fill="#F5AF9C"/>
<path d="M124.666 135.138L124.933 140.114L129.52 142.013L130.383 135.472L124.666 135.138Z" fill="#F5AF9C"/>
<path d="M218.381 138.268L224.992 136.615L220.371 131.902C220.371 131.902 216.081 133.646 217.126 137.383L218.381 138.268Z" fill="#F5AF9C"/>
<path d="M228.316 135.439L227.769 130.254L220.373 131.902L224.995 136.615L228.316 135.439Z" fill="#F5AF9C"/>
<path d="M196.85 304.434L190.695 305.03L185.562 290.514L191.717 289.919L196.85 304.434Z" fill="#F5AF9C"/>
<path d="M262.753 273.93L258.216 278.325L246.568 269.241L251.106 264.846L262.753 273.93Z" fill="#F5AF9C"/>
<path d="M256.909 277.475L260.394 271.295C260.52 271.07 260.78 270.976 261.018 271.068L266.31 273.118C266.859 273.331 267.093 274.037 266.791 274.551C265.539 276.685 264.827 277.652 263.294 280.369C262.352 282.041 260.512 285.878 259.21 288.186C257.936 290.444 255.553 289.332 255.888 288.254C257.39 283.421 257.131 280.724 256.728 278.585C256.657 278.199 256.723 277.803 256.909 277.475Z" fill="#14365B"/>
<path d="M189.472 303.146H196.97C197.243 303.146 197.489 303.335 197.562 303.6L199.193 309.526C199.362 310.141 198.908 310.722 198.278 310.712C195.658 310.667 194.378 310.514 191.081 310.514C189.052 310.514 182.445 310.724 179.644 310.724C176.904 310.724 176.331 307.958 177.465 307.707C182.548 306.583 186.842 305.034 188.411 303.556C188.693 303.289 189.073 303.146 189.472 303.146Z" fill="#14365B"/>
<path d="M185.566 290.518L188.21 298.001H194.579L191.723 289.922L185.566 290.518Z" fill="#FFC9BC"/>
<path d="M251.11 264.848L246.571 269.245L252.577 273.925L257.117 269.528L251.11 264.848Z" fill="#FFC9BC"/>
<path d="M158.717 141.779C158.717 141.779 156.178 143.711 173.31 177.114C183.003 173.988 193.022 170.759 197.739 169.237C194.119 159.439 192.129 153.319 190.295 131.406C190.295 131.406 184.817 131.944 179.48 133.385C172.256 135.336 168.805 136.784 168.387 136.962C163.763 138.933 158.717 141.779 158.717 141.779Z" fill="#00337D"/>
<path d="M174.349 121.264C174.801 125.055 176.213 131.812 179.479 133.386C179.479 133.386 179.672 137.316 173.04 139.455C165.748 141.806 168.387 136.962 168.387 136.962C172.061 134.73 171.004 131.813 169.416 129.267L174.349 121.264Z" fill="#F5AF9C"/>
<path d="M162.094 139.966C163.897 139.032 166.193 137.898 168.388 136.96C171.897 135.463 175.311 134.511 179.483 133.383C181.618 132.803 183.772 132.366 185.589 132.065C185.758 132.571 185.24 133.885 183.977 135.699C179.977 139.022 171.444 143.33 165.151 143.172C162.435 142.152 161.751 141.071 162.094 139.966Z" fill="#F5AF9C"/>
<path d="M183.977 135.699C182.246 138.185 179.106 141.613 174.343 145.231C170.004 144.586 167.073 143.894 165.152 143.172C171.445 143.331 179.978 139.023 183.977 135.699Z" fill="#14365B"/>
<path d="M172.339 124.528L169.419 129.263C169.798 129.865 170.142 130.488 170.397 131.119C171.846 130.41 173.698 128.31 173.345 126.668C173.17 125.849 172.588 124.856 172.339 124.528Z" fill="#FFC9BC"/>
<path d="M175.835 114.25C176.212 120.504 176.505 123.143 173.756 126.712C169.62 132.081 161.847 131.175 159.607 125.16C157.59 119.746 157.312 110.427 163.093 107.215C168.789 104.05 175.458 107.996 175.835 114.25Z" fill="#F5AF9C"/>
<path d="M188.193 103.046C189.607 96.8322 185.711 90.6494 179.489 89.2366C173.268 87.8238 167.078 91.7159 165.664 97.9299C164.249 104.144 168.146 110.327 174.367 111.74C180.588 113.152 186.778 109.26 188.193 103.046Z" fill="#0F264C"/>
<path d="M174.052 105.497C176.433 107.065 177.616 109.468 176.695 110.866C175.773 112.264 173.095 112.127 170.713 110.56C168.332 108.992 167.148 106.589 168.07 105.191C168.991 103.793 171.67 103.93 174.052 105.497Z" fill="#4F81CB"/>
<path d="M172.805 118.516C173.428 117.084 171.261 112.823 171.73 111.23C170.483 110.078 157.899 114.173 158.914 111.178C159.884 108.315 162.952 104.506 169.953 106.099C177.461 107.806 178.088 114.267 177.246 116.328C176.405 118.39 175.221 120.537 175.221 120.537L172.805 118.516Z" fill="#0F264C"/>
<path d="M177.484 119.733C177.514 121.031 176.941 122.222 176.19 122.983C175.061 124.126 173.701 123.309 173.349 121.829C173.032 120.497 173.237 118.297 174.691 117.709C176.123 117.129 177.45 118.248 177.484 119.733Z" fill="#F5AF9C"/>
<path d="M173.309 177.113C173.309 177.113 161.985 232.282 168.3 250.477C174.869 269.402 185.56 295.823 185.56 295.823L195.543 295.251C195.543 295.251 187.294 261.867 185.287 246.793C182.52 226.009 194.396 170.315 194.396 170.315L173.309 177.113Z" fill="#4F81CB"/>
<path d="M196.331 295.493L184.772 296.154L182.918 291.617L195.665 290.294L196.331 295.493Z" fill="#00337D"/>
<path d="M185.29 181.362C183.554 187.772 185.006 197.381 188.282 204.12C189.082 198.882 189.935 193.824 190.743 189.289C189.06 186.069 187.205 183.155 185.29 181.362Z" fill="#1159B1"/>
<path d="M179.762 175.033C179.762 175.033 196.578 215.143 207.71 237.215C216.701 255.043 250 273.699 250 273.699L255.964 267.364C255.964 267.364 231.072 245.284 224.865 233.195C204.999 194.501 209.083 177.603 197.739 169.237L179.762 175.033Z" fill="#4F81CB"/>
<path d="M257.094 266.46L248.87 275.194L243.663 272.456L253.138 262.805L257.094 266.46Z" fill="#00337D"/>
<path d="M197.643 167.687L199.45 169.516C199.59 169.658 199.445 169.896 199.163 169.987L173.544 178.247C173.324 178.318 173.106 178.269 173.048 178.135L172.122 176.022C172.057 175.875 172.207 175.685 172.448 175.608L197.186 167.632C197.367 167.574 197.552 167.596 197.643 167.687Z" fill="#14365B"/>
<path d="M195.215 171.522L195.877 171.308C196.009 171.265 196.088 171.165 196.052 171.085L194.824 168.348C194.788 168.268 194.651 168.237 194.519 168.28L193.856 168.493C193.725 168.536 193.646 168.636 193.682 168.716L194.91 171.454C194.945 171.533 195.082 171.564 195.215 171.522Z" fill="#4F81CB"/>
<path d="M175.482 177.883L176.145 177.669C176.277 177.626 176.355 177.526 176.319 177.446L175.092 174.709C175.056 174.629 174.918 174.598 174.787 174.641L174.124 174.854C173.992 174.897 173.914 174.997 173.949 175.078L175.177 177.815C175.213 177.895 175.35 177.925 175.482 177.883Z" fill="#4F81CB"/>
<path d="M185.348 174.702L186.011 174.489C186.143 174.446 186.221 174.346 186.185 174.266L184.958 171.528C184.922 171.449 184.784 171.418 184.653 171.46L183.99 171.673C183.858 171.716 183.78 171.816 183.816 171.896L185.043 174.634C185.079 174.714 185.217 174.745 185.348 174.702Z" fill="#4F81CB"/>
<path d="M166.618 117.135C166.68 117.64 166.462 118.083 166.131 118.123C165.8 118.163 165.482 117.786 165.42 117.281C165.358 116.776 165.577 116.333 165.907 116.292C166.238 116.251 166.557 116.629 166.618 117.135Z" fill="#0F264C"/>
<path d="M160.9 117.831C160.962 118.336 160.743 118.78 160.413 118.82C160.082 118.86 159.764 118.483 159.702 117.978C159.64 117.472 159.859 117.03 160.189 116.989C160.52 116.949 160.838 117.326 160.9 117.831Z" fill="#0F264C"/>
<path d="M160.338 117L159.08 116.798C159.08 116.798 159.819 117.67 160.338 117Z" fill="#0F264C"/>
<path d="M162.517 118.516C162.517 118.516 161.924 120.797 161.107 121.962C161.851 122.503 162.952 122.08 162.952 122.08L162.517 118.516Z" fill="#FB8674"/>
<path d="M164.957 123.855C164.883 123.855 164.818 123.799 164.809 123.723C164.8 123.641 164.858 123.567 164.939 123.557C167.154 123.287 168.009 121.61 168.017 121.593C168.053 121.519 168.143 121.487 168.217 121.525C168.291 121.562 168.322 121.652 168.285 121.726C168.249 121.8 167.356 123.564 164.975 123.854C164.97 123.854 164.964 123.855 164.957 123.855Z" fill="#0F264C"/>
<path d="M167.329 115.34C167.26 115.34 167.19 115.316 167.133 115.267C166.132 114.405 165.09 114.679 165.047 114.693C164.889 114.737 164.723 114.645 164.678 114.487C164.633 114.328 164.724 114.164 164.882 114.118C164.939 114.102 166.27 113.735 167.524 114.815C167.649 114.923 167.664 115.111 167.556 115.237C167.496 115.305 167.413 115.34 167.329 115.34Z" fill="#0F264C"/>
<path d="M157.945 115.518C157.9 115.518 157.853 115.508 157.811 115.486C157.663 115.412 157.604 115.232 157.678 115.085C158.422 113.606 159.794 113.437 159.851 113.431C160.016 113.416 160.163 113.531 160.182 113.695C160.2 113.859 160.082 114.007 159.919 114.026C159.874 114.031 158.806 114.175 158.212 115.354C158.16 115.458 158.055 115.518 157.945 115.518Z" fill="#0F264C"/>
<path d="M195.209 137.241L195.491 137.599L195.842 138.023C196.081 138.309 196.332 138.602 196.589 138.887C197.109 139.459 197.647 140.025 198.219 140.565C199.341 141.662 200.533 142.706 201.788 143.675C203.06 144.621 204.364 145.532 205.727 146.357C206.411 146.763 207.109 147.153 207.808 147.538L208.877 148.081L209.399 148.345C209.525 148.401 209.653 148.466 209.771 148.508C210.263 148.705 210.65 148.758 210.976 148.753C211.3 148.741 211.625 148.641 212.023 148.366C212.829 147.828 213.678 146.627 214.334 145.284C215.013 143.934 215.554 142.41 215.998 140.845C216.47 139.293 216.837 137.634 217.145 136.063L220.34 136.265C220.374 139.918 219.999 143.439 218.784 147.112C218.474 148.029 218.07 148.942 217.547 149.858C217.021 150.767 216.36 151.696 215.42 152.515C214.496 153.333 213.224 154.027 211.841 154.267C210.465 154.521 209.097 154.354 207.964 153.998C207.67 153.915 207.402 153.812 207.128 153.71L206.477 153.44L205.203 152.906C204.363 152.529 203.53 152.128 202.714 151.698C201.081 150.835 199.503 149.864 197.995 148.788C196.498 147.697 195.048 146.533 193.694 145.246C193.017 144.604 192.371 143.924 191.737 143.221C191.422 142.866 191.11 142.51 190.805 142.13L190.353 141.547C190.195 141.337 190.071 141.169 189.866 140.87L195.209 137.241Z" fill="#F5AF9C"/>
<path d="M200.531 141.179L195.855 149.032L193.568 146.876L197.891 139.016L200.531 141.179Z" fill="#14365B"/>
<path d="M190.294 131.406C192.982 131.361 199.519 139.073 199.519 139.073L193.839 148.958C193.839 148.958 186.599 142.583 186.607 139.091C186.614 135.455 187.227 131.458 190.294 131.406Z" fill="#00337D"/>
<path d="M255.684 280.826C255.494 280.826 255.304 280.754 255.116 280.611C254.913 280.456 254.884 280.273 254.896 280.146C254.968 279.343 256.989 278.279 257.219 278.161C257.272 278.134 257.336 278.14 257.382 278.178C257.429 278.216 257.448 278.277 257.431 278.335C257.198 279.142 256.694 280.533 255.931 280.784C255.849 280.813 255.767 280.826 255.684 280.826ZM257.038 278.599C256.241 279.048 255.233 279.749 255.195 280.172C255.19 280.225 255.198 280.296 255.299 280.374C255.486 280.517 255.661 280.559 255.839 280.501C256.249 280.365 256.688 279.665 257.038 278.599Z" fill="#004FFF"/>
<path d="M255.402 278.872C255.01 278.872 254.662 278.804 254.467 278.637C254.362 278.547 254.206 278.342 254.351 277.995C254.443 277.773 254.606 277.621 254.835 277.541C255.703 277.244 257.293 278.125 257.36 278.163C257.407 278.19 257.436 278.239 257.437 278.292C257.438 278.345 257.41 278.395 257.364 278.423C256.981 278.651 256.116 278.872 255.402 278.872ZM255.251 277.776C255.134 277.776 255.027 277.791 254.933 277.823C254.786 277.874 254.686 277.968 254.627 278.108C254.554 278.286 254.608 278.364 254.662 278.41C254.998 278.699 256.242 278.577 256.955 278.289C256.509 278.07 255.783 277.776 255.251 277.776Z" fill="#004FFF"/>
<path d="M186.146 304.381C185.566 304.381 185.026 304.292 184.681 304.032C184.446 303.854 184.318 303.611 184.301 303.312C184.288 303.089 184.396 302.968 184.489 302.905C185.171 302.444 187.723 303.603 188.227 303.84C188.284 303.867 188.319 303.928 188.312 303.992C188.305 304.055 188.258 304.107 188.195 304.121C187.652 304.242 186.868 304.381 186.146 304.381ZM184.951 303.089C184.823 303.089 184.722 303.109 184.657 303.153C184.625 303.174 184.595 303.207 184.6 303.295C184.612 303.506 184.698 303.669 184.862 303.793C185.452 304.238 186.859 304.069 187.679 303.921C186.756 303.521 185.552 303.089 184.951 303.089Z" fill="#004FFF"/>
<path d="M188.166 304.126C188.147 304.126 188.127 304.122 188.109 304.115C187.263 303.769 185.556 302.401 185.652 301.695C185.673 301.541 185.779 301.346 186.165 301.301C187.652 301.107 188.285 303.828 188.312 303.943C188.325 303.997 188.305 304.054 188.263 304.09C188.234 304.113 188.2 304.126 188.166 304.126ZM186.301 301.591C186.268 301.591 186.234 301.593 186.2 301.597C186.043 301.615 185.958 301.662 185.948 301.736C185.893 302.146 187.072 303.225 187.934 303.698C187.737 303.045 187.198 301.591 186.301 301.591Z" fill="#004FFF"/>
<path d="M166.057 116.302L164.798 116.1C164.798 116.1 165.537 116.973 166.057 116.302Z" fill="#0F264C"/>
<path d="M119.265 64.088C117.935 65.7482 110.642 67.6982 104.845 67.1595C102.85 80.2471 109.832 95.3228 109.832 95.3228C109.832 95.3228 124.979 93.517 125.353 87.2911C125.727 81.0645 119.265 64.088 119.265 64.088Z" fill="#1159B1"/>
<path d="M233.921 54.1322C235.276 56.0344 242.159 57.9262 247.468 56.9377C250.319 72.4356 245.04 90.8405 245.04 90.8405C245.04 90.8405 230.919 89.5891 230.094 82.182C229.267 74.7749 233.921 54.1322 233.921 54.1322Z" fill="#1159B1"/>
<path d="M134.65 188.331C134.195 188.395 133.775 188.079 133.71 187.625L115.905 61.7582C115.841 61.304 116.157 60.8841 116.612 60.8198C117.067 60.7556 117.487 61.0716 117.551 61.5259L135.357 187.392C135.42 187.847 135.104 188.266 134.65 188.331Z" fill="#00337D"/>
<path d="M219.294 178.974C219.748 179.039 220.169 178.723 220.233 178.268L238.039 52.4019C238.103 51.9476 237.787 51.5277 237.332 51.4635C236.877 51.3992 236.457 51.7153 236.392 52.1695L218.587 178.036C218.523 178.49 218.84 178.91 219.294 178.974Z" fill="#00337D"/>
<path d="M115.236 64.4204L118.596 89.1313C118.686 89.7962 119.345 90.2251 119.992 90.0405C127.516 87.8895 169.336 77.1576 233.631 83.988C234.199 84.0485 234.722 83.6704 234.831 83.1093C236.043 76.8483 238.131 59.0164 238.658 54.4536C238.727 53.8544 238.301 53.3128 237.702 53.2366C229.068 52.1442 170.148 45.6195 115.99 63.2198C115.481 63.3842 115.164 63.8915 115.236 64.4204Z" fill="#4F81CB"/>
<path d="M126.021 68.7029L129.568 67.9842L132.078 74.4932L132.713 67.3476L136.247 66.6319L139.352 73.0109L139.399 65.9938L142.928 65.2795L142.466 77.9077L138.804 78.6488L135.297 71.4673L134.573 79.5058L130.91 80.2469L126.021 68.7029Z" fill="white"/>
<path d="M144.666 65.0881L154.757 63.6088L155.086 66.214L148.769 67.1405L149.014 69.08L154.875 68.2208L155.189 70.7096L149.328 71.5688L149.633 73.9745L156.133 73.0219L156.483 75.7856L146.207 77.2918L144.666 65.0881Z" fill="white"/>
<path d="M157.322 63.302L161.103 62.8948L161.913 72.1384L167.815 71.5025L168.08 74.5217L158.397 75.5647L157.322 63.302Z" fill="white"/>
<path d="M177.323 68.7827L180.697 69.5522C180.522 70.5026 180.211 71.308 179.764 71.9692C179.316 72.6297 178.745 73.1452 178.05 73.515C177.355 73.8849 176.458 74.109 175.359 74.1867C174.027 74.2823 172.927 74.1658 172.062 73.8371C171.196 73.5091 170.432 72.8777 169.768 71.9431C169.103 71.0084 168.732 69.7786 168.654 68.2515C168.549 66.217 169.008 64.6144 170.031 63.4436C171.055 62.2736 172.554 61.6176 174.529 61.4772C176.075 61.3666 177.305 61.593 178.222 62.1563C179.138 62.7197 179.845 63.6349 180.341 64.9028L177.032 65.8883C176.895 65.5222 176.759 65.2569 176.621 65.0926C176.394 64.8169 176.122 64.6114 175.808 64.4769C175.493 64.3424 175.146 64.2879 174.767 64.3155C173.908 64.3768 173.267 64.7706 172.846 65.496C172.527 66.0347 172.395 66.8543 172.452 67.9556C172.522 69.3191 172.777 70.2388 173.216 70.7148C173.655 71.1914 174.247 71.4021 174.995 71.3483C175.72 71.2968 176.257 71.0532 176.608 70.6184C176.957 70.1843 177.196 69.5724 177.323 68.7827Z" fill="white"/>
<path d="M182.079 67.3579C182.053 65.3452 182.591 63.7597 183.694 62.6024C184.797 61.4451 186.346 60.8332 188.34 60.7682C190.384 60.7024 191.967 61.2015 193.087 62.267C194.207 63.3324 194.78 64.8573 194.806 66.8417C194.824 68.2829 194.598 69.4723 194.126 70.4092C193.655 71.3477 192.966 72.0873 192.06 72.6305C191.153 73.1729 190.018 73.4665 188.655 73.5106C187.27 73.5562 186.121 73.3716 185.207 72.9585C184.293 72.5453 183.548 71.8684 182.972 70.9285C182.395 69.9886 182.098 68.7984 182.079 67.3579ZM185.875 67.2504C185.891 68.4951 186.133 69.3812 186.601 69.9102C187.069 70.4384 187.699 70.6902 188.493 70.664C189.308 70.6379 189.936 70.351 190.376 69.8041C190.816 69.2564 191.027 68.2941 191.01 66.9149C190.995 65.7546 190.75 64.9141 190.277 64.3941C189.803 63.874 189.167 63.6267 188.369 63.6529C187.603 63.6775 186.993 63.9697 186.537 64.5285C186.078 65.0874 185.858 65.9952 185.875 67.2504Z" fill="white"/>
<path d="M197.106 60.7332L202.097 60.7735L203.816 68.2934L205.932 60.8041L210.919 60.8437L210.582 73.1767L207.475 73.1513L207.731 63.7456L205.081 73.1319L202.267 73.1095L200.134 63.6851L199.877 73.0908L196.77 73.0661L197.106 60.7332Z" fill="white"/>
<path d="M213.659 60.9535L223.811 61.4048L223.644 64.0354L217.288 63.753L217.164 65.7113L223.06 65.9735L222.9 68.4861L217.005 68.2246L216.85 70.6528L223.389 70.9442L223.213 73.7348L212.877 73.2753L213.659 60.9535Z" fill="white"/>
</svg>
